<?xml version="1.0" standalone="no"?>
<!DOCTYPE svg PUBLIC "-//W3C//DTD SVG 20010904//EN"
 "http://www.w3.org/TR/2001/REC-SVG-20010904/DTD/svg10.dtd">
<svg version="1.0" xmlns="http://www.w3.org/2000/svg"
 width="96.000000pt" height="96.000000pt" viewBox="0 0 96.000000 96.000000"
 preserveAspectRatio="xMidYMid meet">
<metadata>
Created by potrace 1.14, written by Peter Selinger 2001-2017
</metadata>
<g transform="translate(0.000000,96.000000) scale(0.100000,-0.100000)"
fill="#000000" stroke="none">
<path d="M292 728 c-106 -32 -172 -117 -172 -220 0 -39 -25 -93 -63 -134 l-27
-29 25 -13 c22 -11 29 -10 53 6 20 14 52 21 122 26 156 10 278 50 353 117 20
19 59 66 85 104 43 64 51 70 82 71 65 1 105 -47 75 -92 -7 -11 -38 -33 -69
-49 -68 -34 -94 -58 -112 -101 -20 -47 -17 -87 7 -118 l20 -26 -40 0 c-36 0
-42 4 -57 33 -9 17 -18 33 -19 35 -2 2 -18 -4 -37 -14 -23 -12 -65 -19 -143
-22 -73 -3 -114 -9 -123 -18 -7 -8 -27 -14 -43 -14 -29 0 -30 1 -15 22 23 32
20 38 -18 38 -28 0 -40 -7 -60 -33 -15 -19 -26 -46 -26 -60 l0 -27 83 0 c55 0
89 5 103 14 12 9 53 15 109 17 50 1 99 7 111 12 16 7 27 3 49 -17 26 -24 35
-26 116 -26 89 0 89 0 89 26 0 32 -16 64 -43 85 -16 13 -18 23 -13 52 7 39 25
54 112 101 69 37 98 77 90 124 -20 124 -181 165 -252 63 -8 -11 -19 -21 -24
-21 -5 0 -30 18 -56 41 -26 22 -59 45 -73 51 -48 18 -133 17 -199 -4z m185
-58 c25 -11 48 -30 55 -45 7 -16 19 -25 35 -25 36 0 28 -24 -27 -74 -50 -44
-122 -79 -190 -90 -53 -9 -197 -17 -182 -10 7 4 12 27 12 63 0 63 25 123 61
150 36 26 111 50 154 50 22 0 59 -8 82 -19z"/>
<path d="M741 622 c-12 -23 1 -45 25 -40 23 4 31 37 12 49 -19 13 -26 11 -37
-9z"/>
</g>
</svg>
